<svg width="40" height="40" viewBox="0 0 40 40" fill="none" xmlns="http://www.w3.org/2000/svg">
<path d="M29.25 10H11.75C10.7554 10 9.80161 10.3951 9.09835 11.0983C8.39509 11.8016 8 12.7554 8 13.75V26.25C8 27.2446 8.39509 28.1984 9.09835 28.9017C9.80161 29.6049 10.7554 30 11.75 30H29.25C30.2446 30 31.1984 29.6049 31.9017 28.9017C32.6049 28.1984 33 27.2446 33 26.25V13.75C33 12.7554 32.6049 11.8016 31.9017 11.0983C31.1984 10.3951 30.2446 10 29.25 10ZM29.25 12.5L21.125 18.0875C20.935 18.1972 20.7194 18.255 20.5 18.255C20.2806 18.255 20.065 18.1972 19.875 18.0875L11.75 12.5H29.25Z" fill="white"/>
<circle cx="20" cy="20" r="19.5" stroke="white"/>
</svg>
