<svg width="40" height="40" viewBox="0 0 40 40" fill="none" xmlns="http://www.w3.org/2000/svg">
<path d="M19.9973 16.6652C18.1611 16.6652 16.6626 18.1638 16.6626 20C16.6626 21.8362 18.1611 23.3348 19.9973 23.3348C21.8335 23.3348 23.332 21.8362 23.332 20C23.332 18.1638 21.8335 16.6652 19.9973 16.6652ZM29.9989 20C29.9989 18.6191 30.0114 17.2506 29.9338 15.8722C29.8563 14.2711 29.4911 12.8502 28.3203 11.6794C27.147 10.5061 25.7286 10.1433 24.1275 10.0658C22.7466 9.98824 21.3782 10.0007 19.9998 10.0007C18.6189 10.0007 17.2505 9.98824 15.8721 10.0658C14.271 10.1433 12.8501 10.5086 11.6793 11.6794C10.5061 12.8527 10.1433 14.2711 10.0658 15.8722C9.98824 17.2531 10.0007 18.6216 10.0007 20C10.0007 21.3784 9.98824 22.7494 10.0658 24.1278C10.1433 25.7289 10.5086 27.1498 11.6793 28.3206C12.8526 29.4939 14.271 29.8567 15.8721 29.9342C17.253 30.0118 18.6214 29.9993 19.9998 29.9993C21.3807 29.9993 22.7491 30.0118 24.1275 29.9342C25.7286 29.8567 27.1495 29.4914 28.3203 28.3206C29.4936 27.1473 29.8563 25.7289 29.9338 24.1278C30.0139 22.7494 29.9989 21.3809 29.9989 20ZM19.9973 25.131C17.1579 25.131 14.8664 22.8394 14.8664 20C14.8664 17.1606 17.1579 14.869 19.9973 14.869C22.8367 14.869 25.1282 17.1606 25.1282 20C25.1282 22.8394 22.8367 25.131 19.9973 25.131ZM25.3383 15.8572C24.6754 15.8572 24.14 15.3218 24.14 14.6589C24.14 13.9959 24.6754 13.4606 25.3383 13.4606C26.0013 13.4606 26.5366 13.9959 26.5366 14.6589C26.5368 14.8163 26.5059 14.9722 26.4458 15.1177C26.3856 15.2632 26.2974 15.3954 26.1861 15.5067C26.0748 15.618 25.9426 15.7062 25.7971 15.7664C25.6516 15.8265 25.4957 15.8574 25.3383 15.8572Z" fill="white"/>
<circle cx="20" cy="20" r="19.5" stroke="white"/>
</svg>
