<svg width="40" height="40" viewBox="0 0 40 40" fill="none" xmlns="http://www.w3.org/2000/svg">
<path d="M20 10C14.486 10 10 14.486 10 20C10 25.514 14.486 30 20 30C25.514 30 30 25.514 30 20C30 14.486 25.514 10 20 10ZM21 26H19V24H21V26ZM21.976 21.115C21.78 21.273 21.591 21.424 21.441 21.574C21.033 21.981 21.001 22.351 21 22.367V22.5H19V22.333C19 22.215 19.029 21.156 20.026 20.159C20.221 19.964 20.463 19.766 20.717 19.56C21.451 18.965 21.933 18.531 21.933 17.933C21.9214 17.4278 21.7125 16.9473 21.3511 16.5941C20.9896 16.241 20.5043 16.0433 19.999 16.0435C19.4937 16.0436 19.0085 16.2415 18.6472 16.5948C18.286 16.9481 18.0774 17.4288 18.066 17.934H16.066C16.066 15.765 17.831 14 20 14C22.169 14 23.934 15.765 23.934 17.934C23.934 19.531 22.755 20.484 21.976 21.115Z" fill="white"/>
<circle cx="20" cy="20" r="19.5" stroke="white"/>
</svg>
